<mxfile host="drawio-plugin" modified="2023-03-19T11:32:30.903Z" agent="5.0 (Macintosh; Intel Mac OS X 10_15_7) AppleWebKit/537.36 (KHTML, like Gecko) Chrome/104.0.5112.102 Safari/537.36" etag="zglC1-cfhpc3WzzIL6dF" version="20.5.3" type="embed"><diagram name="Page-1" id="ufCU2fnDfliETv_y3YjP"><mxGraphModel dx="1055" dy="619" grid="1" gridSize="10" guides="1" tooltips="1" connect="1" arrows="1" fold="1" page="1" pageScale="1" pageWidth="850" pageHeight="1100" math="0" shadow="0"><root><mxCell id="0"/><mxCell id="1" parent="0"/><mxCell id="zVmkHfCl_2nKAno9CqkH-12" value="" style="edgeStyle=orthogonalEdgeStyle;rounded=0;orthogonalLoop=1;jettySize=auto;html=1;exitX=0.5;exitY=1;exitDx=0;exitDy=0;" parent="1" source="zVmkHfCl_2nKAno9CqkH-5" target="zVmkHfCl_2nKAno9CqkH-8" edge="1"><mxGeometry relative="1" as="geometry"><mxPoint x="250" y="190" as="sourcePoint"/></mxGeometry></mxCell><mxCell id="zVmkHfCl_2nKAno9CqkH-5" value="&lt;p style=&quot;margin:0px;margin-top:4px;text-align:center;&quot;&gt;&lt;i&gt;&amp;lt;&amp;lt;Interface&amp;gt;&amp;gt;&lt;/i&gt;&lt;br&gt;&lt;b&gt;Wallet&lt;/b&gt;&lt;/p&gt;&lt;hr size=&quot;1&quot;&gt;&lt;p style=&quot;margin:0px;margin-left:4px;&quot;&gt;+ identifier: integer&lt;/p&gt;&lt;p style=&quot;margin:0px;margin-left:4px;&quot;&gt;+ balance: bigDecimal&lt;/p&gt;&lt;p style=&quot;margin:0px;margin-left:4px;&quot;&gt;+ owner: String&lt;/p&gt;&lt;p style=&quot;margin:0px;margin-left:4px;&quot;&gt;&lt;br&gt;&lt;/p&gt;&lt;hr size=&quot;1&quot;&gt;&lt;p style=&quot;margin:0px;margin-left:4px;&quot;&gt;+ getBalance(): BigDecimal&lt;/p&gt;&lt;p style=&quot;margin:0px;margin-left:4px;&quot;&gt;+ addMoney(amount, paymentMethod)&lt;/p&gt;&lt;p style=&quot;margin:0px;margin-left:4px;&quot;&gt;&lt;br&gt;&lt;/p&gt;" style="verticalAlign=top;align=left;overflow=fill;fontSize=12;fontFamily=Helvetica;html=1;whiteSpace=wrap;" parent="1" vertex="1"><mxGeometry x="30" y="40" width="440" height="160" as="geometry"/></mxCell><mxCell id="zVmkHfCl_2nKAno9CqkH-14" value="" style="edgeStyle=orthogonalEdgeStyle;rounded=0;orthogonalLoop=1;jettySize=auto;html=1;" parent="1" source="zVmkHfCl_2nKAno9CqkH-8" target="zVmkHfCl_2nKAno9CqkH-13" edge="1"><mxGeometry relative="1" as="geometry"/></mxCell><mxCell id="zVmkHfCl_2nKAno9CqkH-16" value="" style="edgeStyle=orthogonalEdgeStyle;rounded=0;orthogonalLoop=1;jettySize=auto;html=1;" parent="1" source="zVmkHfCl_2nKAno9CqkH-8" target="zVmkHfCl_2nKAno9CqkH-15" edge="1"><mxGeometry relative="1" as="geometry"/></mxCell><mxCell id="zVmkHfCl_2nKAno9CqkH-8" value="&lt;p style=&quot;margin:0px;margin-top:4px;text-align:center;&quot;&gt;&lt;i&gt;&amp;lt;&amp;lt;Interface&amp;gt;&amp;gt;&lt;/i&gt;&lt;br&gt;&lt;b&gt;Closed Wallet&lt;/b&gt;&lt;/p&gt;&lt;hr&gt;+ currency: &quot;string&quot;&lt;br&gt;&lt;hr size=&quot;1&quot;&gt;&lt;p style=&quot;margin:0px;margin-left:4px;&quot;&gt;&lt;/p&gt;&lt;p style=&quot;margin:0px;margin-left:4px;&quot;&gt;&lt;span style=&quot;background-color: initial;&quot;&gt;+ pay(amount: BigInteger, sellerWallet: Wallet, comment: string): Transaction&lt;/span&gt;&lt;br&gt;&lt;/p&gt;&lt;p style=&quot;margin:0px;margin-left:4px;&quot;&gt;&lt;br&gt;&lt;/p&gt;" style="verticalAlign=top;align=left;overflow=fill;fontSize=12;fontFamily=Helvetica;html=1;whiteSpace=wrap;" parent="1" vertex="1"><mxGeometry x="30" y="250" width="440" height="140" as="geometry"/></mxCell><mxCell id="zVmkHfCl_2nKAno9CqkH-13" value="&lt;p style=&quot;margin:0px;margin-top:4px;text-align:center;&quot;&gt;&lt;i&gt;&amp;lt;&amp;lt;Class&amp;gt;&amp;gt;&lt;/i&gt;&lt;br&gt;&lt;b&gt;Closed Wallet Impl&lt;/b&gt;&lt;/p&gt;&lt;hr size=&quot;1&quot;&gt;&lt;p style=&quot;margin:0px;margin-left:4px;&quot;&gt;+ currency: &quot;string&quot;&lt;br&gt;&lt;/p&gt;&lt;hr size=&quot;1&quot;&gt;&lt;p style=&quot;margin:0px;margin-left:4px;&quot;&gt;&lt;span style=&quot;background-color: initial;&quot;&gt;+ pay(amount: BigInteger, sellerWallet: Wallet, comment: string): Transaction&lt;/span&gt;&lt;br&gt;&lt;/p&gt;&lt;p style=&quot;margin:0px;margin-left:4px;&quot;&gt;&lt;br&gt;&lt;/p&gt;" style="verticalAlign=top;align=left;overflow=fill;fontSize=12;fontFamily=Helvetica;html=1;whiteSpace=wrap;" parent="1" vertex="1"><mxGeometry x="550" y="250" width="440" height="140" as="geometry"/></mxCell><mxCell id="zVmkHfCl_2nKAno9CqkH-18" value="" style="edgeStyle=orthogonalEdgeStyle;rounded=0;orthogonalLoop=1;jettySize=auto;html=1;" parent="1" source="zVmkHfCl_2nKAno9CqkH-15" target="zVmkHfCl_2nKAno9CqkH-17" edge="1"><mxGeometry relative="1" as="geometry"/></mxCell><mxCell id="zVmkHfCl_2nKAno9CqkH-15" value="&lt;p style=&quot;margin:0px;margin-top:4px;text-align:center;&quot;&gt;&lt;i&gt;&amp;lt;&amp;lt;Interface&amp;gt;&amp;gt;&lt;/i&gt;&lt;br&gt;&lt;b&gt;Semi Closed Wallet&lt;/b&gt;&lt;/p&gt;&lt;hr size=&quot;1&quot;&gt;&lt;p style=&quot;margin:0px;margin-left:4px;&quot;&gt;+ withdraw ( amount: BigInteger ) : Transaction&lt;/p&gt;" style="verticalAlign=top;align=left;overflow=fill;fontSize=12;fontFamily=Helvetica;html=1;whiteSpace=wrap;" parent="1" vertex="1"><mxGeometry x="30" y="470" width="440" height="140" as="geometry"/></mxCell><mxCell id="zVmkHfCl_2nKAno9CqkH-17" value="&lt;p style=&quot;margin:0px;margin-top:4px;text-align:center;&quot;&gt;&lt;i&gt;&amp;lt;&amp;lt;Class&amp;gt;&amp;gt;&lt;/i&gt;&lt;br&gt;&lt;b&gt;Semi Closed Wallet Impl&lt;/b&gt;&lt;/p&gt;&lt;hr size=&quot;1&quot;&gt;&lt;p style=&quot;margin:0px;margin-left:4px;&quot;&gt;&lt;br&gt;&lt;/p&gt;" style="verticalAlign=top;align=left;overflow=fill;fontSize=12;fontFamily=Helvetica;html=1;whiteSpace=wrap;" parent="1" vertex="1"><mxGeometry x="550" y="470" width="440" height="140" as="geometry"/></mxCell></root></mxGraphModel></diagram></mxfile>